<svg width="200" height="100" viewBox="0 0 200 100" fill="none" xmlns="http://www.w3.org/2000/svg">
<rect width="200" height="100" fill="#998844"/>
<rect x="15" y="20" width="167" height="60" fill="#776633"/>
<path d="M40.9904 46.2727V55H38.6211V48.4545H38.5699L36.6608 49.5966V47.5852L38.8086 46.2727H40.9904ZM51.3834 55.2386C50.5908 55.2358 49.9061 55.0526 49.3294 54.6889C48.7527 54.3253 48.3081 53.8011 47.9956 53.1165C47.6831 52.4318 47.5283 51.6108 47.5311 50.6534C47.534 49.6932 47.6902 48.8778 47.9999 48.2074C48.3124 47.5369 48.7556 47.027 49.3294 46.6776C49.9061 46.3281 50.5908 46.1534 51.3834 46.1534C52.176 46.1534 52.8607 46.3295 53.4374 46.6818C54.0141 47.0312 54.4587 47.5412 54.7712 48.2116C55.0837 48.8821 55.2385 49.696 55.2357 50.6534C55.2357 51.6165 55.0794 52.4403 54.7669 53.125C54.4544 53.8097 54.0098 54.3338 53.4331 54.6974C52.8593 55.0582 52.176 55.2386 51.3834 55.2386ZM51.3834 53.3125C51.7925 53.3125 52.1277 53.0994 52.3891 52.6733C52.6533 52.2443 52.784 51.571 52.7811 50.6534C52.7811 50.054 52.7215 49.5639 52.6022 49.1832C52.4828 48.8026 52.3181 48.5213 52.1078 48.3395C51.8976 48.1548 51.6561 48.0625 51.3834 48.0625C50.9743 48.0625 50.6405 48.2699 50.382 48.6847C50.1235 49.0994 49.9914 49.7557 49.9857 50.6534C49.9828 51.2642 50.0411 51.767 50.1604 52.1619C50.2797 52.554 50.4445 52.8438 50.6547 53.0312C50.8678 53.2188 51.1107 53.3125 51.3834 53.3125ZM64.949 55.2386C64.1564 55.2358 63.4718 55.0526 62.8951 54.6889C62.3184 54.3253 61.8738 53.8011 61.5613 53.1165C61.2488 52.4318 61.0939 51.6108 61.0968 50.6534C61.0996 49.6932 61.2559 48.8778 61.5655 48.2074C61.878 47.5369 62.3212 47.027 62.8951 46.6776C63.4718 46.3281 64.1564 46.1534 64.949 46.1534C65.7417 46.1534 66.4263 46.3295 67.003 46.6818C67.5797 47.0312 68.0243 47.5412 68.3368 48.2116C68.6493 48.8821 68.8042 49.696 68.8013 50.6534C68.8013 51.6165 68.6451 52.4403 68.3326 53.125C68.0201 53.8097 67.5755 54.3338 66.9988 54.6974C66.4249 55.0582 65.7417 55.2386 64.949 55.2386ZM64.949 53.3125C65.3581 53.3125 65.6934 53.0994 65.9547 52.6733C66.2189 52.2443 66.3496 51.571 66.3468 50.6534C66.3468 50.054 66.2871 49.5639 66.1678 49.1832C66.0485 48.8026 65.8837 48.5213 65.6735 48.3395C65.4632 48.1548 65.2218 48.0625 64.949 48.0625C64.5399 48.0625 64.2061 48.2699 63.9476 48.6847C63.6891 49.0994 63.557 49.7557 63.5513 50.6534C63.5485 51.2642 63.6067 51.767 63.726 52.1619C63.8453 52.554 64.0101 52.8438 64.2203 53.0312C64.4334 53.2188 64.6763 53.3125 64.949 53.3125ZM87.7507 46.0852L88.3303 47.6534C88.1542 47.7784 87.9667 47.8764 87.7678 47.9474C87.5689 48.0156 87.3203 48.0639 87.0221 48.0923C86.7238 48.1179 86.336 48.1307 85.8587 48.1307C85.3189 48.1307 84.8843 48.1932 84.5547 48.3182C84.2252 48.4432 83.9766 48.6548 83.809 48.9531C83.6414 49.2514 83.5292 49.6591 83.4723 50.1761H83.5235C83.7024 49.7841 83.9581 49.4702 84.2905 49.2344C84.6257 48.9986 85.0803 48.8807 85.6542 48.8807C86.2422 48.8807 86.7493 49.0057 87.1755 49.2557C87.6016 49.5028 87.9283 49.8509 88.1556 50.2997C88.3857 50.7486 88.5007 51.2756 88.5007 51.8807C88.5007 52.5341 88.3658 53.1037 88.0959 53.5895C87.826 54.0753 87.4382 54.4517 86.9326 54.7188C86.4269 54.9858 85.8189 55.1193 85.1087 55.1193C84.3985 55.1193 83.7905 54.9801 83.2848 54.7017C82.7792 54.4233 82.3914 54.0142 82.1215 53.4744C81.8516 52.9347 81.7167 52.2727 81.7167 51.4886V51.0625C81.7167 49.4034 82.0618 48.1903 82.7522 47.4233C83.4453 46.6562 84.4524 46.2727 85.7735 46.2727C86.0803 46.2727 86.3587 46.2727 86.6087 46.2727C86.8615 46.2727 87.0831 46.2599 87.2735 46.2344C87.4667 46.2088 87.6257 46.1591 87.7507 46.0852ZM85.1257 53.3807C85.3246 53.3807 85.4965 53.3267 85.6414 53.2188C85.7863 53.108 85.8985 52.9489 85.978 52.7415C86.0576 52.5312 86.0973 52.2784 86.0973 51.983C86.0973 51.6818 86.0576 51.4261 85.978 51.2159C85.8985 51.0057 85.7863 50.8452 85.6414 50.7344C85.4965 50.6236 85.3246 50.5682 85.1257 50.5682C84.9695 50.5682 84.8289 50.5994 84.7039 50.6619C84.5789 50.7244 84.4723 50.8168 84.3843 50.9389C84.299 51.0582 84.2337 51.206 84.1882 51.3821C84.1428 51.5554 84.1201 51.7557 84.1201 51.983C84.1201 52.4261 84.2081 52.7699 84.3843 53.0142C84.5632 53.2585 84.8104 53.3807 85.1257 53.3807ZM95.7233 57.4545C95.4534 57.4545 95.1963 57.4332 94.952 57.3906C94.7077 57.3509 94.4932 57.2955 94.3086 57.2244L94.8199 55.554C95.0131 55.6222 95.1892 55.6662 95.3483 55.6861C95.5103 55.706 95.648 55.6946 95.7617 55.652C95.8782 55.6094 95.962 55.5284 96.0131 55.4091L96.0642 55.2898L93.7631 48.4545H96.2176L97.2745 52.9886H97.3426L98.4165 48.4545H100.888L98.5017 55.5455C98.3824 55.9062 98.2091 56.2301 97.9819 56.517C97.7574 56.8068 97.462 57.0355 97.0955 57.2031C96.729 57.3707 96.2716 57.4545 95.7233 57.4545ZM112.187 46.0852L112.766 47.6534C112.59 47.7784 112.403 47.8764 112.204 47.9474C112.005 48.0156 111.756 48.0639 111.458 48.0923C111.16 48.1179 110.772 48.1307 110.295 48.1307C109.755 48.1307 109.32 48.1932 108.991 48.3182C108.661 48.4432 108.413 48.6548 108.245 48.9531C108.077 49.2514 107.965 49.6591 107.908 50.1761H107.959C108.138 49.7841 108.394 49.4702 108.726 49.2344C109.062 48.9986 109.516 48.8807 110.09 48.8807C110.678 48.8807 111.185 49.0057 111.611 49.2557C112.038 49.5028 112.364 49.8509 112.592 50.2997C112.822 50.7486 112.937 51.2756 112.937 51.8807C112.937 52.5341 112.802 53.1037 112.532 53.5895C112.262 54.0753 111.874 54.4517 111.368 54.7188C110.863 54.9858 110.255 55.1193 109.545 55.1193C108.834 55.1193 108.226 54.9801 107.721 54.7017C107.215 54.4233 106.827 54.0142 106.557 53.4744C106.288 52.9347 106.153 52.2727 106.153 51.4886V51.0625C106.153 49.4034 106.498 48.1903 107.188 47.4233C107.881 46.6562 108.888 46.2727 110.209 46.2727C110.516 46.2727 110.795 46.2727 111.045 46.2727C111.297 46.2727 111.519 46.2599 111.709 46.2344C111.903 46.2088 112.062 46.1591 112.187 46.0852ZM109.562 53.3807C109.761 53.3807 109.932 53.3267 110.077 53.2188C110.222 53.108 110.334 52.9489 110.414 52.7415C110.493 52.5312 110.533 52.2784 110.533 51.983C110.533 51.6818 110.493 51.4261 110.414 51.2159C110.334 51.0057 110.222 50.8452 110.077 50.7344C109.932 50.6236 109.761 50.5682 109.562 50.5682C109.405 50.5682 109.265 50.5994 109.14 50.6619C109.015 50.7244 108.908 50.8168 108.82 50.9389C108.735 51.0582 108.67 51.206 108.624 51.3821C108.579 51.5554 108.556 51.7557 108.556 51.983C108.556 52.4261 108.644 52.7699 108.82 53.0142C108.999 53.2585 109.246 53.3807 109.562 53.3807ZM118.472 55L118.455 53.2273H118.659C118.787 53.2273 118.899 53.1903 118.996 53.1165C119.095 53.0426 119.179 52.929 119.247 52.7756C119.318 52.6222 119.374 52.4276 119.414 52.1918C119.456 51.956 119.483 51.6761 119.494 51.3523L119.597 48.4545H124.983V55H122.767V50.2102H121.676L121.574 51.983C121.546 52.5398 121.466 53.0114 121.335 53.3977C121.208 53.7841 121.037 54.0952 120.824 54.331C120.611 54.5639 120.364 54.7344 120.083 54.8423C119.801 54.9474 119.492 55 119.154 55H118.472ZM134.047 55.1193C133.348 55.1193 132.745 54.9858 132.24 54.7188C131.737 54.4489 131.349 54.0625 131.076 53.5597C130.807 53.054 130.672 52.4489 130.672 51.7443C130.672 51.0682 130.808 50.4773 131.081 49.9716C131.353 49.4659 131.738 49.0724 132.236 48.7912C132.733 48.5099 133.319 48.3693 133.995 48.3693C134.49 48.3693 134.937 48.446 135.338 48.5994C135.738 48.7528 136.081 48.9759 136.365 49.2685C136.649 49.5582 136.868 49.9105 137.021 50.3253C137.174 50.7401 137.251 51.2074 137.251 51.7273V52.2727H131.405V50.9773H135.086C135.084 50.7898 135.035 50.625 134.942 50.483C134.851 50.3381 134.727 50.2259 134.571 50.1463C134.417 50.0639 134.243 50.0227 134.047 50.0227C133.856 50.0227 133.682 50.0639 133.522 50.1463C133.363 50.2259 133.236 50.3366 133.139 50.4787C133.045 50.6207 132.995 50.7869 132.99 50.9773V52.375C132.99 52.5852 133.034 52.7727 133.122 52.9375C133.21 53.1023 133.336 53.2315 133.501 53.3253C133.666 53.419 133.865 53.4659 134.098 53.4659C134.26 53.4659 134.407 53.4432 134.541 53.3977C134.677 53.3523 134.794 53.2869 134.89 53.2017C134.987 53.1136 135.058 53.0085 135.103 52.8864H137.251C137.177 53.3409 137.003 53.7358 136.727 54.071C136.451 54.4034 136.086 54.6619 135.632 54.8466C135.18 55.0284 134.652 55.1193 134.047 55.1193ZM145.227 52L147.051 48.4545H149.267V55H147.051V51.4375L145.227 55H143.011V48.4545H145.227V52ZM146.983 46.1023H148.466C148.463 46.6562 148.251 47.0994 147.831 47.4318C147.41 47.7614 146.843 47.9261 146.13 47.9261C145.412 47.9261 144.842 47.7614 144.422 47.4318C144.001 47.0994 143.792 46.6562 143.795 46.1023H145.261C145.258 46.2812 145.322 46.446 145.453 46.5966C145.586 46.7443 145.812 46.8182 146.13 46.8182C146.434 46.8182 146.652 46.7457 146.782 46.6009C146.913 46.456 146.98 46.2898 146.983 46.1023Z" fill="black"/>
</svg>
