<svg width="246" height="100" viewBox="0 0 246 100" fill="none" xmlns="http://www.w3.org/2000/svg">
<rect x="24" width="200" height="100" fill="#0055FF"/>
<path d="M0 10L24 1.33975L24 18.6603L0 10Z" fill="#0055FF"/>
<path d="M0 90L24 81.3397L24 98.6603L0 90Z" fill="#0055FF"/>
<path d="M0 70L24 61.3397L24 78.6603L0 70Z" fill="#0055FF"/>
<path d="M0 50L24 41.3397L24 58.6603L0 50Z" fill="#0055FF"/>
<path d="M0 30L24 21.3397L24 38.6603L0 30Z" fill="#0055FF"/>
<path d="M246 10L222 1.33975V18.6603L246 10Z" fill="#0055FF"/>
<path d="M246 90L222 81.3397V98.6603L246 90Z" fill="#0055FF"/>
<path d="M246 70L222 61.3397V78.6603L246 70Z" fill="#0055FF"/>
<path d="M246 50L222 41.3397V58.6603L246 50Z" fill="#0055FF"/>
<path d="M246 30L222 21.3397V38.6603L246 30Z" fill="#0055FF"/>
<rect x="32" y="80" width="182" height="10" fill="white"/>
<path d="M46.1795 39V30.2727H48.5488V33.6818H51.6851V30.2727H54.0545V39H51.6851V35.5909H48.5488V39H46.1795ZM59.447 39.1193C58.7367 39.1193 58.1288 38.9787 57.6231 38.6974C57.1174 38.4134 56.7296 38.0185 56.4597 37.5128C56.1898 37.0043 56.0549 36.4148 56.0549 35.7443C56.0549 35.0739 56.1898 34.4858 56.4597 33.9801C56.7296 33.4716 57.1174 33.0767 57.6231 32.7955C58.1288 32.5114 58.7367 32.3693 59.447 32.3693C60.1572 32.3693 60.7651 32.5114 61.2708 32.7955C61.7765 33.0767 62.1643 33.4716 62.4342 33.9801C62.7041 34.4858 62.839 35.0739 62.839 35.7443C62.839 36.4148 62.7041 37.0043 62.4342 37.5128C62.1643 38.0185 61.7765 38.4134 61.2708 38.6974C60.7651 38.9787 60.1572 39.1193 59.447 39.1193ZM59.464 37.3807C59.6629 37.3807 59.8347 37.3139 59.9796 37.1804C60.1245 37.0469 60.2367 36.8565 60.3163 36.6094C60.3958 36.3622 60.4356 36.0682 60.4356 35.7273C60.4356 35.3835 60.3958 35.0895 60.3163 34.8452C60.2367 34.598 60.1245 34.4077 59.9796 34.2741C59.8347 34.1406 59.6629 34.0739 59.464 34.0739C59.2538 34.0739 59.0734 34.1406 58.9228 34.2741C58.7722 34.4077 58.6572 34.598 58.5776 34.8452C58.4981 35.0895 58.4583 35.3835 58.4583 35.7273C58.4583 36.0682 58.4981 36.3622 58.5776 36.6094C58.6572 36.8565 58.7722 37.0469 58.9228 37.1804C59.0734 37.3139 59.2538 37.3807 59.464 37.3807ZM64.8735 39V32.4545H67.7372C68.615 32.4545 69.3054 32.6037 69.8082 32.902C70.3139 33.2003 70.5667 33.6477 70.5667 34.2443C70.5667 34.5682 70.4247 34.8551 70.1406 35.1051C69.8593 35.3551 69.4502 35.5227 68.9133 35.608C69.4076 35.6307 69.8082 35.7216 70.115 35.8807C70.4247 36.0369 70.6505 36.233 70.7926 36.4688C70.9375 36.7017 71.0099 36.9432 71.0099 37.1932C71.0099 37.5909 70.902 37.9247 70.686 38.1946C70.4701 38.4616 70.152 38.6634 69.7315 38.7997C69.311 38.9332 68.794 39 68.1804 39H64.8735ZM67.0554 37.3466H68.1804C68.3707 37.3466 68.5198 37.3011 68.6278 37.2102C68.7386 37.1193 68.794 36.9943 68.794 36.8352C68.794 36.6705 68.7386 36.5412 68.6278 36.4474C68.5198 36.3537 68.3707 36.3068 68.1804 36.3068H67.0554V37.3466ZM67.0554 35.1136H67.8054C67.9275 35.1136 68.0312 35.0952 68.1164 35.0582C68.2017 35.0185 68.267 34.9631 68.3125 34.892C68.3608 34.821 68.3849 34.7358 68.3849 34.6364C68.3849 34.4858 68.3267 34.3693 68.2102 34.2869C68.0966 34.2017 67.9389 34.1591 67.7372 34.1591H67.0554V35.1136ZM76.1499 39.1193C75.4397 39.1193 74.8317 38.9787 74.3261 38.6974C73.8204 38.4134 73.4326 38.0185 73.1627 37.5128C72.8928 37.0043 72.7579 36.4148 72.7579 35.7443C72.7579 35.0739 72.8928 34.4858 73.1627 33.9801C73.4326 33.4716 73.8204 33.0767 74.3261 32.7955C74.8317 32.5114 75.4397 32.3693 76.1499 32.3693C76.8601 32.3693 77.4681 32.5114 77.9738 32.7955C78.4795 33.0767 78.8672 33.4716 79.1371 33.9801C79.407 34.4858 79.542 35.0739 79.542 35.7443C79.542 36.4148 79.407 37.0043 79.1371 37.5128C78.8672 38.0185 78.4795 38.4134 77.9738 38.6974C77.4681 38.9787 76.8601 39.1193 76.1499 39.1193ZM76.167 37.3807C76.3658 37.3807 76.5377 37.3139 76.6826 37.1804C76.8275 37.0469 76.9397 36.8565 77.0192 36.6094C77.0988 36.3622 77.1386 36.0682 77.1386 35.7273C77.1386 35.3835 77.0988 35.0895 77.0192 34.8452C76.9397 34.598 76.8275 34.4077 76.6826 34.2741C76.5377 34.1406 76.3658 34.0739 76.167 34.0739C75.9567 34.0739 75.7763 34.1406 75.6258 34.2741C75.4752 34.4077 75.3601 34.598 75.2806 34.8452C75.2011 35.0895 75.1613 35.3835 75.1613 35.7273C75.1613 36.0682 75.2011 36.3622 75.2806 36.6094C75.3601 36.8565 75.4752 37.0469 75.6258 37.1804C75.7763 37.3139 75.9567 37.3807 76.167 37.3807ZM84.7299 39.1193C84.0197 39.1193 83.4117 38.9787 82.9061 38.6974C82.4004 38.4134 82.0126 38.0185 81.7427 37.5128C81.4728 37.0043 81.3379 36.4148 81.3379 35.7443C81.3379 35.0739 81.4728 34.4858 81.7427 33.9801C82.0126 33.4716 82.4004 33.0767 82.9061 32.7955C83.4117 32.5114 84.0197 32.3693 84.7299 32.3693C85.372 32.3693 85.9274 32.4858 86.3961 32.7188C86.8677 32.9489 87.2328 33.2756 87.4913 33.6989C87.7498 34.1193 87.8805 34.6136 87.8833 35.1818H85.7015C85.6703 34.8381 85.5708 34.5767 85.4032 34.3977C85.2384 34.2159 85.0254 34.125 84.764 34.125C84.5595 34.125 84.3805 34.1847 84.2271 34.304C84.0737 34.4205 83.9544 34.598 83.8691 34.8366C83.7839 35.0724 83.7413 35.3693 83.7413 35.7273C83.7413 36.0852 83.7839 36.3835 83.8691 36.6222C83.9544 36.858 84.0737 37.0355 84.2271 37.1548C84.3805 37.2713 84.5595 37.3295 84.764 37.3295C84.9373 37.3295 85.0907 37.2898 85.2242 37.2102C85.3578 37.1278 85.4657 37.0085 85.5481 36.8523C85.6333 36.6932 85.6845 36.5 85.7015 36.2727H87.8833C87.8748 36.8494 87.7427 37.3523 87.487 37.7812C87.2313 38.2074 86.8691 38.5369 86.4004 38.7699C85.9345 39.0028 85.3776 39.1193 84.7299 39.1193ZM92.1498 36L93.9736 32.4545H96.1895V39H93.9736V35.4375L92.1498 39H89.9339V32.4545H92.1498V36ZM104.297 30.0852L104.876 31.6534C104.7 31.7784 104.512 31.8764 104.314 31.9474C104.115 32.0156 103.866 32.0639 103.568 32.0923C103.27 32.1179 102.882 32.1307 102.404 32.1307C101.865 32.1307 101.43 32.1932 101.101 32.3182C100.771 32.4432 100.522 32.6548 100.355 32.9531C100.187 33.2514 100.075 33.6591 100.018 34.1761H100.069C100.248 33.7841 100.504 33.4702 100.836 33.2344C101.172 32.9986 101.626 32.8807 102.2 32.8807C102.788 32.8807 103.295 33.0057 103.721 33.2557C104.147 33.5028 104.474 33.8509 104.701 34.2997C104.931 34.7486 105.047 35.2756 105.047 35.8807C105.047 36.5341 104.912 37.1037 104.642 37.5895C104.372 38.0753 103.984 38.4517 103.478 38.7188C102.973 38.9858 102.365 39.1193 101.654 39.1193C100.944 39.1193 100.336 38.9801 99.8306 38.7017C99.3249 38.4233 98.9371 38.0142 98.6673 37.4744C98.3974 36.9347 98.2624 36.2727 98.2624 35.4886V35.0625C98.2624 33.4034 98.6076 32.1903 99.2979 31.4233C99.9911 30.6562 100.998 30.2727 102.319 30.2727C102.626 30.2727 102.904 30.2727 103.154 30.2727C103.407 30.2727 103.629 30.2599 103.819 30.2344C104.012 30.2088 104.172 30.1591 104.297 30.0852ZM101.672 37.3807C101.87 37.3807 102.042 37.3267 102.187 37.2188C102.332 37.108 102.444 36.9489 102.524 36.7415C102.603 36.5312 102.643 36.2784 102.643 35.983C102.643 35.6818 102.603 35.4261 102.524 35.2159C102.444 35.0057 102.332 34.8452 102.187 34.7344C102.042 34.6236 101.87 34.5682 101.672 34.5682C101.515 34.5682 101.375 34.5994 101.25 34.6619C101.125 34.7244 101.018 34.8168 100.93 34.9389C100.845 35.0582 100.779 35.206 100.734 35.3821C100.689 35.5554 100.666 35.7557 100.666 35.983C100.666 36.4261 100.754 36.7699 100.93 37.0142C101.109 37.2585 101.356 37.3807 101.672 37.3807ZM109.333 36L111.157 32.4545H113.373V39H111.157V35.4375L109.333 39H107.117V32.4545H109.333V36ZM115.65 41.4545V32.4545H117.986V33.5966H118.037C118.122 33.375 118.247 33.1719 118.412 32.9872C118.577 32.7997 118.781 32.6506 119.025 32.5398C119.27 32.4261 119.554 32.3693 119.878 32.3693C120.31 32.3693 120.72 32.4844 121.109 32.7145C121.501 32.9446 121.819 33.3068 122.064 33.8011C122.311 34.2955 122.435 34.9375 122.435 35.7273C122.435 36.483 122.317 37.1094 122.081 37.6065C121.848 38.1037 121.535 38.4744 121.143 38.7188C120.754 38.9631 120.327 39.0852 119.861 39.0852C119.554 39.0852 119.28 39.0355 119.038 38.9361C118.8 38.8338 118.595 38.696 118.425 38.5227C118.257 38.3466 118.128 38.1477 118.037 37.9261H118.003V41.4545H115.65ZM117.952 35.7273C117.952 36.0455 117.993 36.321 118.075 36.554C118.16 36.7841 118.28 36.9631 118.433 37.0909C118.589 37.2159 118.775 37.2784 118.991 37.2784C119.207 37.2784 119.39 37.2173 119.541 37.0952C119.694 36.9702 119.811 36.7926 119.89 36.5625C119.973 36.3295 120.014 36.0511 120.014 35.7273C120.014 35.4034 119.973 35.1264 119.89 34.8963C119.811 34.6634 119.694 34.4858 119.541 34.3636C119.39 34.2386 119.207 34.1761 118.991 34.1761C118.775 34.1761 118.589 34.2386 118.433 34.3636C118.28 34.4858 118.16 34.6634 118.075 34.8963C117.993 35.1264 117.952 35.4034 117.952 35.7273ZM127.653 39.1193C126.943 39.1193 126.335 38.9787 125.829 38.6974C125.324 38.4134 124.936 38.0185 124.666 37.5128C124.396 37.0043 124.261 36.4148 124.261 35.7443C124.261 35.0739 124.396 34.4858 124.666 33.9801C124.936 33.4716 125.324 33.0767 125.829 32.7955C126.335 32.5114 126.943 32.3693 127.653 32.3693C128.295 32.3693 128.851 32.4858 129.32 32.7188C129.791 32.9489 130.156 33.2756 130.415 33.6989C130.673 34.1193 130.804 34.6136 130.807 35.1818H128.625C128.594 34.8381 128.494 34.5767 128.327 34.3977C128.162 34.2159 127.949 34.125 127.687 34.125C127.483 34.125 127.304 34.1847 127.151 34.304C126.997 34.4205 126.878 34.598 126.793 34.8366C126.707 35.0724 126.665 35.3693 126.665 35.7273C126.665 36.0852 126.707 36.3835 126.793 36.6222C126.878 36.858 126.997 37.0355 127.151 37.1548C127.304 37.2713 127.483 37.3295 127.687 37.3295C127.861 37.3295 128.014 37.2898 128.148 37.2102C128.281 37.1278 128.389 37.0085 128.472 36.8523C128.557 36.6932 128.608 36.5 128.625 36.2727H130.807C130.798 36.8494 130.666 37.3523 130.41 37.7812C130.155 38.2074 129.793 38.5369 129.324 38.7699C128.858 39.0028 128.301 39.1193 127.653 39.1193ZM132.857 39V32.4545H135.21V34.7898H135.619L137.016 32.4545H139.71L137.613 35.7614L139.727 39H136.999L135.738 36.9716H135.21V39H132.857ZM149.121 33.75V35.5227H145.03V33.75H149.121ZM155.038 30.2727H157.987L160.015 35.2159H160.117L162.146 30.2727H165.095V39H162.776V33.9545H162.708L160.765 38.9318H159.367L157.424 33.9205H157.356V39H155.038V30.2727ZM170.485 39.1193C169.775 39.1193 169.167 38.9787 168.661 38.6974C168.155 38.4134 167.768 38.0185 167.498 37.5128C167.228 37.0043 167.093 36.4148 167.093 35.7443C167.093 35.0739 167.228 34.4858 167.498 33.9801C167.768 33.4716 168.155 33.0767 168.661 32.7955C169.167 32.5114 169.775 32.3693 170.485 32.3693C171.195 32.3693 171.803 32.5114 172.309 32.7955C172.814 33.0767 173.202 33.4716 173.472 33.9801C173.742 34.4858 173.877 35.0739 173.877 35.7443C173.877 36.4148 173.742 37.0043 173.472 37.5128C173.202 38.0185 172.814 38.4134 172.309 38.6974C171.803 38.9787 171.195 39.1193 170.485 39.1193ZM170.502 37.3807C170.701 37.3807 170.873 37.3139 171.018 37.1804C171.162 37.0469 171.275 36.8565 171.354 36.6094C171.434 36.3622 171.474 36.0682 171.474 35.7273C171.474 35.3835 171.434 35.0895 171.354 34.8452C171.275 34.598 171.162 34.4077 171.018 34.2741C170.873 34.1406 170.701 34.0739 170.502 34.0739C170.292 34.0739 170.111 34.1406 169.961 34.2741C169.81 34.4077 169.695 34.598 169.616 34.8452C169.536 35.0895 169.496 35.3835 169.496 35.7273C169.496 36.0682 169.536 36.3622 169.616 36.6094C169.695 36.8565 169.81 37.0469 169.961 37.1804C170.111 37.3139 170.292 37.3807 170.502 37.3807ZM179.065 39.1193C178.355 39.1193 177.747 38.9787 177.241 38.6974C176.735 38.4134 176.348 38.0185 176.078 37.5128C175.808 37.0043 175.673 36.4148 175.673 35.7443C175.673 35.0739 175.808 34.4858 176.078 33.9801C176.348 33.4716 176.735 33.0767 177.241 32.7955C177.747 32.5114 178.355 32.3693 179.065 32.3693C179.707 32.3693 180.262 32.4858 180.731 32.7188C181.203 32.9489 181.568 33.2756 181.826 33.6989C182.085 34.1193 182.215 34.6136 182.218 35.1818H180.037C180.005 34.8381 179.906 34.5767 179.738 34.3977C179.573 34.2159 179.36 34.125 179.099 34.125C178.894 34.125 178.715 34.1847 178.562 34.304C178.409 34.4205 178.289 34.598 178.204 34.8366C178.119 35.0724 178.076 35.3693 178.076 35.7273C178.076 36.0852 178.119 36.3835 178.204 36.6222C178.289 36.858 178.409 37.0355 178.562 37.1548C178.715 37.2713 178.894 37.3295 179.099 37.3295C179.272 37.3295 179.426 37.2898 179.559 37.2102C179.693 37.1278 179.801 37.0085 179.883 36.8523C179.968 36.6932 180.019 36.5 180.037 36.2727H182.218C182.21 36.8494 182.078 37.3523 181.822 37.7812C181.566 38.2074 181.204 38.5369 180.735 38.7699C180.269 39.0028 179.713 39.1193 179.065 39.1193ZM184.269 39V32.4545H186.621V34.7898H187.03L188.428 32.4545H191.121L189.025 35.7614L191.138 39H188.411L187.15 36.9716H186.621V39H184.269ZM192.767 39V32.4545H195.63C196.508 32.4545 197.199 32.6037 197.701 32.902C198.207 33.2003 198.46 33.6477 198.46 34.2443C198.46 34.5682 198.318 34.8551 198.034 35.1051C197.753 35.3551 197.344 35.5227 196.807 35.608C197.301 35.6307 197.701 35.7216 198.008 35.8807C198.318 36.0369 198.544 36.233 198.686 36.4688C198.831 36.7017 198.903 36.9432 198.903 37.1932C198.903 37.5909 198.795 37.9247 198.579 38.1946C198.363 38.4616 198.045 38.6634 197.625 38.7997C197.204 38.9332 196.687 39 196.074 39H192.767ZM194.949 37.3466H196.074C196.264 37.3466 196.413 37.3011 196.521 37.2102C196.632 37.1193 196.687 36.9943 196.687 36.8352C196.687 36.6705 196.632 36.5412 196.521 36.4474C196.413 36.3537 196.264 36.3068 196.074 36.3068H194.949V37.3466ZM194.949 35.1136H195.699C195.821 35.1136 195.924 35.0952 196.01 35.0582C196.095 35.0185 196.16 34.9631 196.206 34.892C196.254 34.821 196.278 34.7358 196.278 34.6364C196.278 34.4858 196.22 34.3693 196.103 34.2869C195.99 34.2017 195.832 34.1591 195.63 34.1591H194.949V35.1136ZM202.714 39.1023C202.296 39.1023 201.927 39.0341 201.606 38.8977C201.288 38.7585 201.038 38.5483 200.856 38.267C200.674 37.9858 200.583 37.6278 200.583 37.1932C200.583 36.8352 200.644 36.5298 200.766 36.277C200.888 36.0213 201.059 35.8125 201.278 35.6506C201.496 35.4886 201.751 35.3651 202.04 35.2798C202.333 35.1946 202.648 35.1392 202.986 35.1136C203.353 35.0852 203.647 35.0511 203.868 35.0114C204.093 34.9687 204.255 34.9105 204.354 34.8366C204.454 34.7599 204.503 34.6591 204.503 34.5341V34.517C204.503 34.3466 204.438 34.2159 204.307 34.125C204.177 34.0341 204.009 33.9886 203.805 33.9886C203.58 33.9886 203.397 34.0384 203.255 34.1378C203.116 34.2344 203.032 34.3835 203.003 34.5852H200.839C200.867 34.1875 200.993 33.821 201.218 33.4858C201.445 33.1477 201.776 32.8778 202.211 32.6761C202.645 32.4716 203.188 32.3693 203.839 32.3693C204.307 32.3693 204.728 32.4247 205.1 32.5355C205.472 32.6435 205.789 32.7955 206.05 32.9915C206.312 33.1847 206.511 33.4119 206.647 33.6733C206.786 33.9318 206.856 34.2131 206.856 34.517V39H204.657V38.0795H204.606C204.475 38.3239 204.316 38.5213 204.128 38.6719C203.944 38.8224 203.732 38.9318 203.493 39C203.258 39.0682 202.998 39.1023 202.714 39.1023ZM203.481 37.6193C203.66 37.6193 203.827 37.5824 203.984 37.5085C204.143 37.4347 204.272 37.3281 204.371 37.1889C204.471 37.0497 204.52 36.8807 204.52 36.6818V36.1364C204.458 36.1619 204.391 36.1861 204.32 36.2088C204.252 36.2315 204.178 36.2528 204.099 36.2727C204.022 36.2926 203.94 36.3111 203.851 36.3281C203.766 36.3452 203.677 36.3608 203.583 36.375C203.401 36.4034 203.252 36.4503 203.136 36.5156C203.022 36.5781 202.937 36.6562 202.88 36.75C202.826 36.8409 202.799 36.9432 202.799 37.0568C202.799 37.2386 202.863 37.3778 202.991 37.4744C203.118 37.571 203.282 37.6193 203.481 37.6193Z" fill="white"/>
</svg>
